# xmcd CD database file
#
# Track frame offsets:
#	150
#	13612
#	35962
#	60300
#	83250
#	103725
#	136612
#	164550
#	181800
#	200550
#	221662
#	234637
#	250500
#	270637
#
# Disc length: 3898 seconds
#
# Revision: 0
# Processed by: cddbd v1.5.2PL0 Copyright (c) Steve Scherf et al.
# Submitted via: CDex 1.70beta1
#
DISCID=b70f380e
DTITLE=Alexis Korner - Alexis Korner
DYEAR=1900
DGENRE=Blues
TTITLE0=One Scotch, One Bourbon, One Beer
TTITLE1=Stump Blues
TTITLE2=Medley: Streamline Train, My Baby
TTITLE3=32-20 Blues
TTITLE4=Hi Heel Sneakers
TTITLE5=Will The Circle Be Unbroken
TTITLE6=Mary Open The Door
TTITLE7=Lend Me Some Time
TTITLE8=The Road Is The Road
TTITLE9=The Gambler
TTITLE10=Honour The Young Man
TTITLE11=To Whom It May Concern
TTITLE12=Sweet Sympathy
TTITLE13=Daytime Song
EXTD=
EXTT0=
EXTT1=
EXTT2=
EXTT3=
EXTT4=
EXTT5=
EXTT6=
EXTT7=
EXTT8=
EXTT9=
EXTT10=
EXTT11=
EXTT12=
EXTT13=
PLAYORDER=
